<svg xmlns="http://www.w3.org/2000/svg" width="404" height="312.8" viewBox="-101.3 438.6 404 312.8" enable-background="new -101.3 438.6 404 312.8"><path fill="none" d="M-19.5 601.6V693c0 3.8 3.2 7.6 7.6 7.6H5.9v-1.3c1.9-9.5 7.6-17.8 15.2-23.5 7.6-6.3 17.1-9.5 26.6-9.5 20.3 0 38.1 14.6 41.9 34.3v1.3h90.1v-1.3c3.8-19.7 21.6-34.3 41.9-34.3 19.7 0 36.8 13.3 41.2 32.4v1.3h5.1c9.5 0 15.9-.6 19-2.5 5.1-2.5 6.3-14.6 3.2-38.7-.6-3.8-4.4-46.3-4.4-47.6-3.2-7.6-28.5-53.9-35.5-64.1l-.6-.6h-59v109.1c0 2.5-1.9 5.1-5.1 5.1l-24.7.6c-1.3 0-2.5-.6-3.2-1.3-.6-.6-1.3-1.9-1.3-3.8l-.6-141.5c0-1.9-1.3-3.8-3.2-3.8H61.8c.6 3.2.6 6.3.6 9.5-.1 45.1-36.9 81.2-81.9 81.2zm220.1-34.8c0-4.4 3.2-7.6 7.6-7.6h31.7c3.2 0 3.8 0 15.2 20.3 5.7 10.1 8.9 15.9 9.5 18.4.6.6.6 1.3.6 2.5 0 2.5-1.9 5.1-5.1 5.1v1.3-1.3H205c-1.3 0-2.5-.6-3.2-1.3-.6-.6-1.3-1.9-1.3-3.2v-34.2h.1zM47.7 675.9c-18.4 0-33 14.6-33 33s14.6 33 33 33 33-14.6 33-33c0-17.8-14.6-33-33-33zm0 43.1c-5.7 0-10.2-4.4-10.2-10.1s4.4-10.1 10.2-10.1c5.7 0 10.1 4.4 10.1 10.1.1 5.7-4.4 10.1-10.1 10.1zM222.2 675.9c-18.4 0-33 14.6-33 33s14.6 33 33 33 33-14.6 33-33c0-17.8-14.6-33-33-33zm0 43.1c-5.7 0-10.1-4.4-10.1-10.1s4.4-10.1 10.1-10.1 10.1 4.4 10.1 10.1c0 5.7-4.4 10.1-10.1 10.1zM252 592.8c-4.4-7.6-10.1-18.4-13.3-23.5l-.6-.6h-27.3v26h42.5l-1.3-1.9z"/><circle fill="#65BC55" cx="222.2" cy="708.9" r="10.1"/><circle fill="#65BC55" cx="47.7" cy="708.9" r="10.1"/><path fill="#65BC55" d="M300.8 657.5c-.6-2.5-3.2-32.4-4.4-47.6 0-2.5-6.3-15.2-19-37.4-19.7-35.5-21.6-35.5-24.7-35.5h-60.9c-5.7 0-10.1 4.4-10.1 10.1v104h-15.2l-.6-136.4c0-7.6-5.7-13.3-13.3-13.3h-92c.6 3.2 1.3 6.3 1.9 9.5h89.4c1.9 0 3.2 1.9 3.2 3.8l.6 141.5c0 1.3.6 2.5 1.3 3.8 1.3.6 1.9 1.3 3.2 1.3l24.7-.6c2.5 0 5.1-2.5 5.1-5.1V545.8h59l.6.6c7 10.1 32.4 56.5 35.5 64.1 0 1.9 4.4 43.8 4.4 47.6 3.2 24.1 2.5 36.2-3.2 38.7-3.2 1.9-9.5 2.5-19 2.5h-5.1V698c-5.1-19-22.2-32.4-41.2-32.4-20.3 0-38.1 14.6-41.9 34.3v1.3H90.3v-1.3c-3.8-19.7-21.6-34.3-41.9-34.3-9.5 0-19 3.2-26.6 9.5-7.6 5.7-12.7 14.6-15.2 23.5v1.3h-17.9c-3.8 0-7.6-3.2-7.6-7.6v-90.7c-3.2 0-6.3 0-9.5-.6v92c0 9.5 7.6 17.1 17.1 17.1H5.8v1.3c1.3 22.2 20.3 40 42.5 40 10.8 0 20.9-3.8 29.2-11.4 7.6-7 12.7-17.1 14-27.3v-1.3h88.8v1.3c1.3 10.8 5.7 20.3 14 27.3 7.6 7 18.4 11.4 29.2 11.4 22.8 0 41.9-17.8 42.5-40.6v-1.3h3.8c7 0 17.1-.6 23.5-3.8 12-6.4 10.1-27.3 7.5-48.2zM47.7 741.8c-18.4 0-33-14.6-33-33s14.6-33 33-33 33 14.6 33 33c0 18.5-14.6 33-33 33zm174.5 0c-18.4 0-33-14.6-33-33s14.6-33 33-33 33 14.6 33 33c0 18.5-14.6 33-33 33zM205.7 604.8h55.2v1.3-1.3c2.5 0 5.1-1.9 5.1-5.1 0-.6 0-1.3-.6-2.5-1.3-2.5-3.8-8.2-9.5-18.4-11.4-20.3-12.1-20.3-15.2-20.3H209c-4.4 0-7.6 3.2-7.6 7.6v33c0 1.3.6 2.5 1.3 3.2.4 1.9 1.7 2.5 3 2.5zm5-35.5H238l.6.6c3.2 4.4 8.9 15.2 13.3 23.5l1.3 1.9h-42.5v-26z"/><path fill="none" d="M49.6 500.8c-8.2-30.4-36.2-52.7-69.1-52.7-39.3 0-71.7 32.4-71.7 71.7 0 36.2 26.6 66 61.5 71.1 3.2.6 6.3.6 9.5.6h.6c39.3 0 71.7-32.4 71.7-71.7 0-3.2 0-6.3-.6-9.5-.6-2.5-1.3-6.4-1.9-9.5zm-19-11.4l-13.3 11.4-11.4 9.5-24.7 22.2s-.6 0-.6.6H-23l-5.7-2.5-43.1-17.8c-2.5-1.3-3.8-3.8-2.5-7 1.3-2.5 3.8-3.8 7-2.5l38.3 16.5 6.3 2.5 3.2-3.2 10.8-9.5 11.4-9.5 22.2-19.7c1.9-1.9 5.1-1.9 7 .6 1.2 3.3.6 6.5-1.3 8.4z"/><path fill="#199BD7" d="M61.7 510.9c-.6-3.2-1.3-6.3-1.9-9.5-8.9-36.2-41.2-62.8-79.3-62.8-45 0-81.8 36.2-81.8 81.2 0 41.9 31.1 76.1 71.7 81.2 3.2.6 6.3.6 9.5.6h.6c45 0 81.8-36.8 81.8-81.8 0-2.5 0-5.7-.6-8.9zm-81.2 80.6c-3.8 0-7 0-10.2-.6-34.3-5.1-61.5-34.9-61.5-71.1 0-39.3 32.4-71 71.7-71 33 0 60.3 22.2 69.1 52.7.6 3.2 1.3 6.3 1.9 9.5.6 3.2.6 6.3.6 9.5.1 39.3-32.3 71-71.6 71zM23.6 481.7L1.4 501.4l-11.4 9.5-9.5 9.5-3.2 3.2-6.3-2.5-38.7-16.5c-2.5-1.3-5.7 0-7 2.5-1.3 2.5 0 5.7 2.5 7l43.2 17.8 5.7 2.5h3.6s.6 0 .6-.6l24.7-22.2 11.4-9.5 13.3-11.4c1.9-1.9 2.5-5.1.6-7-1.6-3.9-4.8-3.9-7.3-2z"/></svg>